<svg width="248" height="474" viewBox="0 0 248 474" fill="none" xmlns="http://www.w3.org/2000/svg">
<path d="M172.616 35.9611C206.583 70.8991 213.377 132.688 226.317 188.33C238.933 243.972 257.373 294.114 241.521 329.699C225.346 365.284 174.88 386.635 131.855 415.75C88.8293 444.865 53.2443 482.068 25.0997 471.392C-3.04475 460.717 -23.1018 402.487 -49.6288 367.872C-75.8323 333.258 -108.182 322.259 -142.15 294.114C-176.117 265.646 -211.702 220.033 -205.232 183.801C-198.762 147.892 -150.561 121.689 -106.565 89.9856C-62.5688 57.9591 -22.4547 20.7566 27.6878 6.52258C78.1538 -7.71142 138.648 1.02307 172.616 35.9611Z" fill="url(#paint0_linear)"/>
<defs>
<linearGradient id="paint0_linear" x1="20.8266" y1="0" x2="20.8266" y2="473.264" gradientUnits="userSpaceOnUse">
<stop stop-color="#FF3767"/>
<stop offset="1" stop-color="#FF0066" stop-opacity="0.6"/>
</linearGradient>
</defs>
</svg>
