<svg width="247" height="474" viewBox="0 0 247 474" fill="none" xmlns="http://www.w3.org/2000/svg">
<path d="M378.616 35.9611C412.583 70.8991 419.377 132.688 432.317 188.33C444.933 243.972 463.373 294.114 447.521 329.699C431.346 365.284 380.88 386.635 337.855 415.75C294.829 444.865 259.244 482.068 231.1 471.392C202.955 460.717 182.898 402.487 156.371 367.872C130.168 333.258 97.8177 322.259 63.8502 294.114C29.8827 265.646 -5.70229 220.033 0.767713 183.801C7.23771 147.892 55.4392 121.689 99.4352 89.9856C143.431 57.9591 183.545 20.7566 233.688 6.52258C284.154 -7.71142 344.648 1.02308 378.616 35.9611Z" fill="url(#paint0_linear)"/>
<defs>
<linearGradient id="paint0_linear" x1="226.827" y1="0" x2="226.827" y2="473.264" gradientUnits="userSpaceOnUse">
<stop stop-color="#FF3767"/>
<stop offset="1" stop-color="#FF0066" stop-opacity="0.6"/>
</linearGradient>
</defs>
</svg>
