<svg width="219" height="368" viewBox="0 0 219 368" fill="none" xmlns="http://www.w3.org/2000/svg">
<path d="M202.195 97.5398C209.32 131.969 185.76 176.943 176.122 211.25C166.71 245.606 171.27 269.068 166.689 294.314C161.884 319.51 147.536 346.165 126.189 354.025C104.665 361.61 75.9156 350.351 49.0276 341.391C21.8645 332.608 -3.48662 326.349 -33.1736 311.811C-62.8111 297.047 -96.5589 274.053 -103.113 245.661C-109.619 217.043 -89.2055 183.203 -65.2323 157.946C-41.2098 132.464 -14.1278 115.691 16.9956 93.4175C48.1685 70.9188 83.3335 43.1458 119.934 41.2255C156.534 39.3053 194.844 63.0616 202.195 97.5398Z" fill="url(#paint0_linear)"/>
<defs>
<linearGradient id="paint0_linear" x1="81.8075" y1="29.8944" x2="14.4822" y2="337.468" gradientUnits="userSpaceOnUse">
<stop stop-color="#FF0066"/>
<stop offset="1" stop-color="#FF0066" stop-opacity="0.6"/>
</linearGradient>
</defs>
</svg>
