<svg width="176" height="368" viewBox="0 0 176 368" fill="none" xmlns="http://www.w3.org/2000/svg">
<path d="M323.985 97.4744C331.11 131.903 307.55 176.878 297.913 211.184C288.5 245.54 293.06 269.003 288.48 294.248C283.674 319.445 269.327 346.099 247.979 353.959C226.455 361.544 197.706 350.285 170.818 341.326C143.655 332.542 118.304 326.284 88.6168 311.746C58.9792 296.982 25.2315 273.988 18.6769 245.596C12.1718 216.978 32.5849 183.138 56.558 157.881C80.5806 132.398 107.663 115.625 138.786 93.3521C169.959 70.8534 205.124 43.0803 241.724 41.1601C278.324 39.2398 316.634 62.9962 323.985 97.4744Z" fill="url(#paint0_linear)"/>
<defs>
<linearGradient id="paint0_linear" x1="203.598" y1="29.8289" x2="136.273" y2="337.403" gradientUnits="userSpaceOnUse">
<stop stop-color="#FF0066"/>
<stop offset="1" stop-color="#FF0066" stop-opacity="0.6"/>
</linearGradient>
</defs>
</svg>
