<svg width="41" height="59" viewBox="0 0 41 59" fill="none" xmlns="http://www.w3.org/2000/svg">
<path d="M18.9393 58.0607C19.5251 58.6464 20.4749 58.6464 21.0607 58.0607L30.6066 48.5147C31.1924 47.9289 31.1924 46.9792 30.6066 46.3934C30.0208 45.8076 29.0711 45.8076 28.4853 46.3934L20 54.8787L11.5147 46.3934C10.9289 45.8076 9.97918 45.8076 9.3934 46.3934C8.80761 46.9792 8.80761 47.9289 9.3934 48.5147L18.9393 58.0607ZM18.5 -6.55671e-08L18.5 57L21.5 57L21.5 6.55671e-08L18.5 -6.55671e-08Z" fill="#E4E4E4"/>
<line x1="1.5" y1="14" x2="1.5" y2="44" stroke="#F79F24" stroke-width="3"/>
<line x1="39.5" y1="14" x2="39.5" y2="44" stroke="#F79F24" stroke-width="3"/>
</svg>
